<mxfile host="app.diagrams.net" agent="Mozilla/5.0 (Windows NT 10.0; Win64; x64; rv:134.0) Gecko/20100101 Firefox/134.0" version="26.0.10">
  <diagram name="Página-1" id="RsyaZGnKzZuYgTZht-ri">
    <mxGraphModel dx="1405" dy="842" grid="1" gridSize="10" guides="1" tooltips="1" connect="1" arrows="1" fold="1" page="1" pageScale="1" pageWidth="827" pageHeight="1169" math="0" shadow="0">
      <root>
        <mxCell id="0" />
        <mxCell id="1" parent="0" />
        <mxCell id="dRNNjarhrwVg-8_Ku8zv-1" value="32 Bits" style="text;html=1;whiteSpace=wrap;overflow=hidden;rounded=0;fontFamily=Helvetica;fontSize=16;fontStyle=1;fontColor=light-dark(#000000,#FFD966);" parent="1" vertex="1">
          <mxGeometry x="690" y="262" width="60" height="30" as="geometry" />
        </mxCell>
        <mxCell id="dRNNjarhrwVg-8_Ku8zv-2" value="" style="endArrow=classic;html=1;rounded=0;hachureGap=4;fontFamily=Architects Daughter;fontSource=https%3A%2F%2Ffonts.googleapis.com%2Fcss%3Ffamily%3DArchitects%2BDaughter;fontSize=16;strokeWidth=4;fillColor=#6d8764;strokeColor=#3A5431;" parent="1" edge="1">
          <mxGeometry width="50" height="50" relative="1" as="geometry">
            <mxPoint x="670" y="285" as="sourcePoint" />
            <mxPoint x="140" y="285" as="targetPoint" />
          </mxGeometry>
        </mxCell>
        <mxCell id="dRNNjarhrwVg-8_Ku8zv-3" value="" style="endArrow=none;html=1;rounded=0;hachureGap=4;fontFamily=Architects Daughter;fontSource=https%3A%2F%2Ffonts.googleapis.com%2Fcss%3Ffamily%3DArchitects%2BDaughter;fontSize=16;strokeWidth=4;startFill=1;startArrow=classic;fillColor=#6d8764;strokeColor=#3A5431;" parent="1" edge="1">
          <mxGeometry width="50" height="50" relative="1" as="geometry">
            <mxPoint x="1350" y="285" as="sourcePoint" />
            <mxPoint x="760" y="285" as="targetPoint" />
          </mxGeometry>
        </mxCell>
        <mxCell id="dRNNjarhrwVg-8_Ku8zv-4" value="4 Bits" style="text;html=1;whiteSpace=wrap;overflow=hidden;rounded=0;fontFamily=Helvetica;fontSize=16;fontStyle=1;fontColor=light-dark(#000000,#FFD966);" parent="1" vertex="1">
          <mxGeometry x="328" y="330" width="60" height="30" as="geometry" />
        </mxCell>
        <mxCell id="dRNNjarhrwVg-8_Ku8zv-5" value="4 Bits" style="text;html=1;whiteSpace=wrap;overflow=hidden;rounded=0;fontFamily=Helvetica;fontSize=16;fontStyle=1;fontColor=light-dark(#000000,#FFD966);" parent="1" vertex="1">
          <mxGeometry x="170" y="330" width="80" height="30" as="geometry" />
        </mxCell>
        <mxCell id="dRNNjarhrwVg-8_Ku8zv-6" value="VERSÃO 1" style="text;html=1;whiteSpace=wrap;overflow=hidden;rounded=0;fontFamily=Helvetica;fontSize=16;fontStyle=1;fontColor=light-dark(#000000,#FFD966);" parent="1" vertex="1">
          <mxGeometry x="160" y="397" width="100" height="30" as="geometry" />
        </mxCell>
        <mxCell id="dRNNjarhrwVg-8_Ku8zv-7" value="TIPO ( 1 - 2 )" style="text;html=1;whiteSpace=wrap;overflow=hidden;rounded=0;fontFamily=Helvetica;fontSize=16;fontStyle=1;align=center;fontColor=light-dark(#000000,#FFD966);" parent="1" vertex="1">
          <mxGeometry x="303" y="397" width="110" height="30" as="geometry" />
        </mxCell>
        <mxCell id="dRNNjarhrwVg-8_Ku8zv-9" value="CHECKSUM" style="text;html=1;whiteSpace=wrap;overflow=hidden;rounded=0;fontFamily=Helvetica;fontSize=16;fontStyle=1;align=center;fontColor=light-dark(#000000,#FFD966);" parent="1" vertex="1">
          <mxGeometry x="975" y="392" width="110" height="40" as="geometry" />
        </mxCell>
        <mxCell id="dRNNjarhrwVg-8_Ku8zv-10" value="8 Bits" style="text;html=1;whiteSpace=wrap;overflow=hidden;rounded=0;fontFamily=Helvetica;fontSize=16;fontStyle=1;fontColor=light-dark(#000000,#FFD966);" parent="1" vertex="1">
          <mxGeometry x="528" y="330" width="60" height="30" as="geometry" />
        </mxCell>
        <mxCell id="dRNNjarhrwVg-8_Ku8zv-11" value="" style="endArrow=none;html=1;rounded=0;hachureGap=4;fontFamily=Architects Daughter;fontSource=https%3A%2F%2Ffonts.googleapis.com%2Fcss%3Ffamily%3DArchitects%2BDaughter;fontSize=12;strokeWidth=4;fillColor=#76608a;strokeColor=#432D57;" parent="1" edge="1">
          <mxGeometry width="50" height="50" relative="1" as="geometry">
            <mxPoint x="130" y="520" as="sourcePoint" />
            <mxPoint x="130" y="280" as="targetPoint" />
          </mxGeometry>
        </mxCell>
        <mxCell id="dRNNjarhrwVg-8_Ku8zv-12" value="" style="endArrow=none;html=1;rounded=0;hachureGap=4;fontFamily=Architects Daughter;fontSource=https%3A%2F%2Ffonts.googleapis.com%2Fcss%3Ffamily%3DArchitects%2BDaughter;fontSize=12;strokeWidth=4;fillColor=#76608a;strokeColor=#432D57;" parent="1" edge="1">
          <mxGeometry width="50" height="50" relative="1" as="geometry">
            <mxPoint x="1360" y="520" as="sourcePoint" />
            <mxPoint x="1360" y="280" as="targetPoint" />
          </mxGeometry>
        </mxCell>
        <mxCell id="dRNNjarhrwVg-8_Ku8zv-13" value="" style="endArrow=none;html=1;rounded=0;hachureGap=4;fontFamily=Architects Daughter;fontSource=https%3A%2F%2Ffonts.googleapis.com%2Fcss%3Ffamily%3DArchitects%2BDaughter;strokeWidth=4;fillColor=#76608a;strokeColor=#432D57;" parent="1" edge="1">
          <mxGeometry width="50" height="50" relative="1" as="geometry">
            <mxPoint x="129" y="442" as="sourcePoint" />
            <mxPoint x="1360" y="442" as="targetPoint" />
          </mxGeometry>
        </mxCell>
        <mxCell id="dRNNjarhrwVg-8_Ku8zv-14" value="" style="endArrow=none;html=1;rounded=0;hachureGap=4;fontFamily=Architects Daughter;fontSource=https%3A%2F%2Ffonts.googleapis.com%2Fcss%3Ffamily%3DArchitects%2BDaughter;strokeWidth=4;fillColor=#76608a;strokeColor=#432D57;" parent="1" edge="1">
          <mxGeometry width="50" height="50" relative="1" as="geometry">
            <mxPoint x="130" y="380" as="sourcePoint" />
            <mxPoint x="1360" y="380" as="targetPoint" />
          </mxGeometry>
        </mxCell>
        <mxCell id="dRNNjarhrwVg-8_Ku8zv-15" value="" style="endArrow=none;html=1;rounded=0;hachureGap=4;fontFamily=Architects Daughter;fontSource=https%3A%2F%2Ffonts.googleapis.com%2Fcss%3Ffamily%3DArchitects%2BDaughter;strokeWidth=4;fillColor=#76608a;strokeColor=#432D57;" parent="1" edge="1">
          <mxGeometry width="50" height="50" relative="1" as="geometry">
            <mxPoint x="440" y="440" as="sourcePoint" />
            <mxPoint x="440" y="320" as="targetPoint" />
          </mxGeometry>
        </mxCell>
        <mxCell id="dRNNjarhrwVg-8_Ku8zv-16" value="ENDEREÇO DE GRUPO" style="text;html=1;whiteSpace=wrap;overflow=hidden;rounded=0;fontFamily=Helvetica;fontSize=16;fontStyle=1;align=center;fontColor=light-dark(#000000,#FFD966);" parent="1" vertex="1">
          <mxGeometry x="628" y="470" width="238" height="40" as="geometry" />
        </mxCell>
        <mxCell id="dRNNjarhrwVg-8_Ku8zv-17" value="" style="endArrow=none;html=1;rounded=0;hachureGap=4;fontFamily=Architects Daughter;fontSource=https%3A%2F%2Ffonts.googleapis.com%2Fcss%3Ffamily%3DArchitects%2BDaughter;strokeWidth=4;fillColor=#76608a;strokeColor=#432D57;" parent="1" edge="1">
          <mxGeometry width="50" height="50" relative="1" as="geometry">
            <mxPoint x="129" y="520" as="sourcePoint" />
            <mxPoint x="1360" y="520" as="targetPoint" />
          </mxGeometry>
        </mxCell>
        <mxCell id="dRNNjarhrwVg-8_Ku8zv-18" value="" style="endArrow=none;html=1;rounded=0;hachureGap=4;fontFamily=Architects Daughter;fontSource=https%3A%2F%2Ffonts.googleapis.com%2Fcss%3Ffamily%3DArchitects%2BDaughter;strokeWidth=4;fillColor=#76608a;strokeColor=#432D57;" parent="1" edge="1">
          <mxGeometry width="50" height="50" relative="1" as="geometry">
            <mxPoint x="279" y="439" as="sourcePoint" />
            <mxPoint x="279" y="319" as="targetPoint" />
          </mxGeometry>
        </mxCell>
        <mxCell id="dRNNjarhrwVg-8_Ku8zv-19" value="FORMATO DA MENSAGEM IGMPv1" style="text;html=1;whiteSpace=wrap;overflow=hidden;rounded=0;fontFamily=Helvetica;fontSize=15;fontStyle=1" parent="1" vertex="1">
          <mxGeometry x="130" y="530" width="268" height="30" as="geometry" />
        </mxCell>
        <mxCell id="6yy0jC2TlJ2M-Mjk-ESF-1" style="edgeStyle=orthogonalEdgeStyle;rounded=0;sketch=1;hachureGap=4;jiggle=2;curveFitting=1;orthogonalLoop=1;jettySize=auto;html=1;exitX=0.5;exitY=1;exitDx=0;exitDy=0;fontFamily=Architects Daughter;fontSource=https%3A%2F%2Ffonts.googleapis.com%2Fcss%3Ffamily%3DArchitects%2BDaughter;" edge="1" parent="1" source="dRNNjarhrwVg-8_Ku8zv-9" target="dRNNjarhrwVg-8_Ku8zv-9">
          <mxGeometry relative="1" as="geometry" />
        </mxCell>
        <mxCell id="6yy0jC2TlJ2M-Mjk-ESF-2" value="16 Bits" style="text;html=1;whiteSpace=wrap;overflow=hidden;rounded=0;fontFamily=Helvetica;fontSize=16;fontStyle=1;fontColor=light-dark(#000000,#FFD966);" vertex="1" parent="1">
          <mxGeometry x="1000" y="330" width="60" height="30" as="geometry" />
        </mxCell>
        <mxCell id="6yy0jC2TlJ2M-Mjk-ESF-4" value="NÃO UTILIZADO" style="text;html=1;whiteSpace=wrap;overflow=hidden;rounded=0;fontFamily=Helvetica;fontSize=16;fontStyle=1;align=center;fontColor=light-dark(#000000,#FFD966);" vertex="1" parent="1">
          <mxGeometry x="518" y="387" width="110" height="40" as="geometry" />
        </mxCell>
        <mxCell id="6yy0jC2TlJ2M-Mjk-ESF-5" value="" style="endArrow=none;html=1;rounded=0;hachureGap=4;fontFamily=Architects Daughter;fontSource=https%3A%2F%2Ffonts.googleapis.com%2Fcss%3Ffamily%3DArchitects%2BDaughter;strokeWidth=4;fillColor=#76608a;strokeColor=#432D57;" edge="1" parent="1">
          <mxGeometry width="50" height="50" relative="1" as="geometry">
            <mxPoint x="720" y="440" as="sourcePoint" />
            <mxPoint x="720" y="320" as="targetPoint" />
          </mxGeometry>
        </mxCell>
      </root>
    </mxGraphModel>
  </diagram>
</mxfile>
